/* XPM */
static char * dark_side_of_the_moon_50x50_50clr_dither_xpm[] = {
"50 50 50 1",
" 	c #000100",
".	c #070000",
"+	c #03050A",
"@	c #1A0509",
"#	c #350810",
"$	c #151C1E",
"%	c #5E0C1B",
"&	c #1D2D2B",
"*	c #2B2D2D",
"=	c #930F26",
"-	c #342A3F",
";	c #273937",
">	c #CC0C31",
",	c #CF102A",
"'	c #4F3F5A",
")	c #454A4C",
"!	c #693B7E",
"~	c #35504B",
"{	c #CD3123",
"]	c #654B87",
"^	c #635587",
"/	c #4A6865",
"(	c #D74A1F",
"_	c #656768",
":	c #577574",
"<	c #656F9C",
"[	c #E06D15",
"}	c #69868A",
"|	c #868688",
"1	c #708BB4",
"2	c #7A969D",
"3	c #E78712",
"4	c #9D998D",
"5	c #88AAAF",
"6	c #EAA112",
"7	c #7AC132",
"8	c #98ABB4",
"9	c #77BF5F",
"0	c #71BE90",
"a	c #70BDBD",
"b	c #86C727",
"c	c #70BCDD",
"d	c #73BFD3",
"e	c #7AC9DD",
"f	c #F1C918",
"g	c #BADA21",
"h	c #C3CACD",
"i	c #FCF21D",
"j	c #F7FB1E",
"k	c #F6F8F6",
"                                                  ",
"                                                  ",
"                                                  ",
"                                                  ",
"                                                  ",
"                                                  ",
"                                                  ",
"                                                  ",
"                                                  ",
"                                                  ",
"                                                  ",
"                                                  ",
"                         :1                       ",
"                        &+;+                      ",
"                        ~ +}                      ",
"                       8   $)                     ",
"                       ;    :                     ",
"                     .}  &  +5[>>>% . .           ",
"                    )48/;+  +/9ji333[>,>>#+       ",
"                $k. +/       +}cc77gjjf333[>,,,=. ",
"             k.     _         $+^]!cc977gjji3333[>",
"         k*+        /          :  +.]]!1cebb7gjij6",
"     |4.           5+          +)     ..^]]<ec9bb7",
" )k++              ;            /          .^]^^ee",
"                  :             +2            +.^]",
"                  $+             ;.               ",
"                 5:}}}::::/::/:///8               ",
"                               + .                ",
"                                                  ",
"                                                  ",
"                                                  ",
"                                                  ",
"                                                  ",
"                                                  ",
"                                                  ",
"                                                  ",
"                                                  ",
"                                                  ",
"                                                  ",
"                                                  ",
"                                                  ",
"                                                  ",
"                                                  ",
"                                                  ",
"                                                  ",
"                                                  ",
"                                                  ",
"                                                  ",
"                                                  ",
"                                                  "};
