/* XPM */
static char * dark_side_of_the_moon_8clr_50x50_xpm[] = {
"50 50 8 1",
" 	c #000100",
".	c #2D3030",
"+	c #C51730",
"@	c #644D86",
"#	c #48615F",
"$	c #E68613",
"%	c #8BAFBA",
"&	c #BBDC2A",
"                                                  ",
"                                                  ",
"                                                  ",
"                                                  ",
"                                                  ",
"                                                  ",
"                                                  ",
"                                                  ",
"                                                  ",
"                                                  ",
"                                                  ",
"                                                  ",
"                         #%                       ",
"                        . .                       ",
"                        #  #                      ",
"                       %    .                     ",
"                       .    #                     ",
"                      %  .   %$++++               ",
"                    .%%#.    #&&&$$$$++++         ",
"                 %   #        %%%&&&&&$$$$$+++++  ",
"             %      #         . @@@%%&&&&&&&$$$$$+",
"         %.         #          #    @@@%%%&&&&&&&$",
"     #%            %            #       @@@@%%&&&&",
" .%                .            #           @@@@%%",
"                  #              %              @@",
"                                 #                ",
"                 %#%%#############%               ",
"                                                  ",
"                                                  ",
"                                                  ",
"                                                  ",
"                                                  ",
"                                                  ",
"                                                  ",
"                                                  ",
"                                                  ",
"                                                  ",
"                                                  ",
"                                                  ",
"                                                  ",
"                                                  ",
"                                                  ",
"                                                  ",
"                                                  ",
"                                                  ",
"                                                  ",
"                                                  ",
"                                                  ",
"                                                  ",
"                                                  "};
