/* XPM */
static char * wish_you_were_here_small_8clr_150x100_xpm[] = {
"150 100 8 1",
" 	c #110C09",
".	c #3A2C24",
"+	c #584839",
"@	c #756650",
"#	c #A19276",
"$	c #ABC4D0",
"%	c #D2C094",
"&	c #E3DBC1",
"&&%%&&&%%&#%#%%#&&&&&&&&&&&&&&&&+&&&#&&#&&&&&&&&&&$$$$$$$$$$$$$$$$$$$$$$$$$$$$$$$$$$$$$$$$$$$$$$$$@ @@++##&##.+..++.+++++.++++++++++######@@+.+...... ",
"&&%%&&&%%%######&&&&&&&&&&&&&&&&+&&&&+&+&&&&&&&&&&$$$$$$$$$$$$$$$$$$$$$$$$$$$$$$$$$$$$$$$$$$$$$$$$+ @+++#&&##......+++++.++++++++++.######@@.+....+.. ",
"%&%%%&&%#%#%##%#&&&&&&&&&&&&&&&&@&&&&& #&&&&&&&&&#$$$$$$$$$$$$$$$$$$$$$$$$$$$$$$$$$$$$$$$$$$$$$$$@@.+++@#&&##+...+++..+++++++++++++.########+.+.......",
"#%%%%&&%%#####%#&&&&&&&&&&&&&&&&@&&&&&#&&&&&&#&&&#$$$$$$$$$$$$$$$$$$$$$$$$$$$$$$$$$$$$$$$$$$$$###+++++++#&+##....+.+..++++++++.++.+.########++..++... ",
"#&%%#&&%%%######&&&&&&&&&&&&&&&&@&&&&&&&&&&&&&&&&#@$$$$$$$$$$$$$$$$$$$$$$$$$$$$$$$$$$$$$$$%%####$.++++++@@@@+.+..+...+.++++++. +++..########++..+.... ",
"#&#%%&&&%%%%##%#&&&&&&&&&&&&&&&&#&&&&&&&&&&&&&&&&@#@@@@&$$$$$$$$$$$$$$$$$$$$$$$$$$$$$$$$%%%%#@##@+++++++#@###...++.+..++++++   ++++.@#######+......++ ",
"%&%%%&&&%%&%%#%#&&&&&&&&&&&&&&&&#&&&&&&&&&&&&&&&&&&%%%&&$$$$$$$$$$$$$$$$$$$$$$$$$$$$$$$%%%%$#####+++++++###@#+.....+.+.+.+.    +++.+########@.....+.. ",
"%&%%%&&&%%&#%###&&&&&&&&&&&&&&&&#&&&@&&&&&%%%&&&&&&%&&&.   #$$$$$$$$$$$$$$$$$$$$$$$$$#&#%%#$@$##$+++++.+##%##.........++++.    ...+.@#######@+...+... ",
"#%%%%%&&%%%#####&&&&&&&&&&&&&&&&%&&&+&&@.....&&&&&&#&#       $$$$$$$$$$$$$$$$$$$$$$$%%@#%%#$$$$$$+++++++#%###..+...+.......    ++..+#########.+...+.  ",
"#%#%%%&&%%%#%###&&&&&&&&&&&&&&&&#&&&@###@####&&&&&&@&         $$$$$$$$$$$$$$$$$$$$$$#++@%#&$$$$$$+++++++%##@@..............    ++...####@##@#..+.     ",
"%#%%%%&&%%%#####&&&&&&&&&&&&&&&&&#&&+&#@@#@##&&&&&&#          @$$$$$$$$$$$$$$$$$$$$+++ .@@#$$$$$$+++++++###@.............+.    ++.+.#########..       ",
"##%%%#&&%%%#####&&&&&&&&&&&&&&&&##&&+&&@@###%&&&&&&&          #$$$$$$$$$$$$$$$$$$$ .  .@#+#$$$$$#+++++++###@+..............    .+.+.#######@@         ",
"##&%%%&&%%%%####&&&&&&&&&&&&&&&&&.&&+##..##%#&&&&&&$      . .@$$$$$$$$$$$$$$$$$$$+    .. ++%$$$$@+++++++###@@..............   ..+.++##@...+.          ",
"##&%%%&&%%%&%###&&&&&&&&&&&&&&&&&  &+&&######&&&&&&@      .+.@$$$$$$$$$$$$$$$$$$@       .+++$$$$@+++++++###@@.............+.   +.+++###+ @            ",
"#.@%%%&&%%%&##%#&&&&&&&&&&&&&&&&&  &+#@######&&&&&&+      +@ #$$$$$$$$$$$$$$$$$$$   ..   ..+$$$$++++++++@####..........+.+.   .+++++###@              ",
"##%%%%%&%%%&+#%#&&&&&&&+&&&&&&&&& @&.@#%####%&&&&&&        .@@$$$$$$$$$$$$$$$$$$$        ...+$$$++++++++@###@..............   ..+..+@+                ",
"#%%%%%%%%%%#.%##&&&&&&&&&&&&&&&&&.@&+#&######&&&&&&+      .+@#$$$$$$$$$$$$$$$$$$$@.         +$$$$+++++++@##@@.........+...+   ..+...#                 ",
"#%#%%%%&%%%###%#&&&&&&&&&&&&&&&&&.#&.#&#####%&&&&&&&       +##$$$$$$$$$$$$$$$$$$$$$     ...+.@$$$++.++++@##@@...........+++   .+...+                  ",
"#%#%%%%&%%%%#%%#&&@.@&&&&&&&&&&&&+%&.#&##@@++@@@+#&&#  @$   @#$$$$$$$$$$$$$$$$$$$$$     ..&&@++$$+++++++@#@@@............++.  ....++.      @@         ",
"#%%&%%%&%%%%%####&&.&&&&&&&&&&&&&.%&.&&@####@&&#&&&&   ++# +$$$$$$$$$$$$$$$$$$$$$$$     .@$$...+#++@++@++@@@#............+.   ......+.  ##@@@         ",
"###%%%%&%%%%&###%&&&&&&&&&&&&&&&&.#&+%#+####%&@&&&@ .+@@++@$$$$$$$$$$$$$$$$$$$$$$$$$.    +$ . .. .@@@+.+@@@@#...............  ..+.+.@#...#...         ",
"###%%##&%%%%&##.#&&+&&&&&&&&&&&&&.%&.%%+#####@&&&  @ .@@@@+$$$$$$$$$$$$$$$$$$$$$$$$$$   $&  .     +@@+@@@##@#+............+   .++.+.@###.#.@.         ",
"#%%%#%#%%%%%&.+@%&&&&&&&&&&&&&&&&.#&@%&+#####&&&   ++..+@@+@$$$$$$$$$$$$$$$$$$$$$$$$$$$ $$       ..+@@@@#####+..........+......++++.@#+.+#.#.         ",
"%%%%%%###%%%###@%&&&&&&%&&&&&&&&&.%&.%&+#####&&       ....++..$$$$$$$$$$$$$$$$$$$$$$$$          @#.++@%###@##@.............   ...+++@#.##@.#.         ",
"%%%#%%%####%#..+%&&&&&&&&&&&&&&&&.%&@#&+#####&&       . .... @@$$$$$$$$$$$$$$$$$$$$$$.  .       +@. .%%++####+............+.  .+++. +#...#+.@         ",
"%%%#&%%%%%%%%+ #%&&&&&&&&&&&&&&&&+%&@#%+#####&             +++.$$$$$$$$$$$$$$$$$$$$$$            #+@#@@+#@##@............++   .++++++########         ",
"%%%#&%%%%%%%%@.%%&&&&&&&&&&&&&&&&+%&@#&+#@###&            .++.@$@&$$$$##$$#$$#######@  .        .@.#@+..+#@@#.............+    ++++++####@@##   .     ",
"%%%#&%%%&%%%%&+%%&&&&&&&&&&&&&&&&+%&+@%.#+###&            .  +++#%###%%%%%%%%%%%%%%%#            .++@..++##.#@++.+.........    ..+..+######@#     ... ",
"%%%%&%%%&%%%%&#%%&&&&&&&&&&&&&&&%+%&#@@++@###&              @ .+%%%%%%%%%%%%%%%%%%%%%             +@+.+++####@++.+.........    +.....##@#@@##  .  .. .",
"%%%%&%%%%%%%%&#%%&&&&&&&&&&&&&&&&.%&@.&+#####&                 .%%%%%%%%%%%%%%%%%%%%%            ..#. .++####@.............    ++..++########. .  ....",
"%%%%%%#%%%%%%%#%%&&&&&&&&&&&&&&&&+%#@.&+####@@             +.+++.%%%%%%%%%%%%%%%%%%%%            .#@+.@@+@@+##.............    ....+.###@####.........",
"%%%##%#%%%%%%##%%&&&&&&&&+&&&&&&&.%##.#.#####                ++..%%%%%%%%%%%%%%%%%%%%#           .+.#+@@+...+@.............    ...++.########.... ....",
"%%###%#%#%%%%%#%%&&&#&&&&&&&&&&&&.%&#.#@%#@@+                  @++%%%%%%%%%%#%%%%%%%%#           @.##@++    ..  ...........    ..+...@##@#@@#.........",
"%%%##%#%%%%%%%%%%&&&&&+&&&&&&&&&&.%&# &+##@#@                  . ..+@%%%%%%%#%%%%%%%%#           @.++.++  .   ..     . .....   .... +########.........",
"%%###&%%%&%%%%%#%&&&&&@&&&&&&&&&&.%&#+&+##@+@                   ...#%%%%%%%%#%%%%%%%%           @ .@..+       ..     . ....    .... +@###@###.........",
"&%%%%&#%%&%%%%&%%&&&&&@&&&&&&&&&&.%&#+%@%##@#                   +.++.@%%%%%%@%%%%%%%         ++..+#.....      ..        ...    .... +########.........",
"&%###&%%%&%%%%&%&&&&&&@&&&&&&&&&&.%&%@&######                    .. ..%%+#%%@#%%%%%         +   @@#.....       .        ...     +...+######@#.........",
"&%###%#%%%%%%%%%&&&&&&+&&&&&##&&&.%&&@&#@@###                       .  %@##@+%%%#+         .+@.@.   . ..      ...       ...     ....+###@@@#@.......  ",
"&%#%%%%%%#+%%%#%&&&&&&@&&&@@@@#@&+%&+%&%+#@##                      +..  ....+#%#        .  .       .  ..      .. ...    ...     ..+ .@##@@##@  .      ",
"####%##%%##%%##%&&&&&&@&#&@@@+##@+%&+%&%+##%#                   #      .  @@...       +.         . .  ..       ..       ...     ... .####@@@#         ",
"@###@@##%##+%%#%%&&&&&@&+&+++@##@.%%@%%##%###                   .#@          ..     .+..          ..  ..       . . .            .   .@@++++ +         ",
"+.++++@++++.+++#&&&&&&#&@&@@@@#+@+%%@%&####%#                    #%#                 ..           .   ..      .. .                   ...... .         ",
"+++++.@+++#.+++#+#####@#@&@#++#%@+++@+@@+####                    %%%%@            +#                  ..       .                     ...... .         ",
"+@++++#+++#.+++#+#####@@+%@+@@#@+@+.+@#@.++++.                   %%%%##@  #.    +@#+.              .   ..+.    .                     ....+...         ",
".#++++#+++#.+++@+#########@@@#%@@@+++@%@.+++++        .          #%.%##############@                  ..                             +.......         ",
".@+..+@++.+.+++++####%%&&&&@%&#@@###@@#@@++.+           . .      #@#@@@+@+@@@+@@@@++..                                               +.......         ",
"+@.+++@...+@+++.+####%%%&&&+%%@@@####%%######              . ..  +++++++++++++.........                                              ++......         ",
".#++++.++++@++++.@##%%%&%&&.%@@@@%%%#########              .  .. .++++++++++...........                   .                       .  +.+.....         ",
"+@+++++++++#++++.@#%%%##&&&+%@@@@############                 ... ##@@++.+.+.+.++++..+.                +...    ..+++@@@@+@+@@#@#####@.@@@###.         ",
"+++++++@+++#++++@##%%%%&%%%%##@###########%%+            .    ... ++++++.++.++..+++....           .    .........                                      ",
"##%#%%%###############%##############@#%#@++              ... ... +.++..++.+.....++....+               .............                                . ",
"#%%%%%%#%%############@+.++..+..+++++.+++++++++.           .    . .+++.++.......+.+.+...               ..................                             ",
"@##############@#@+.++..+.+.+++++...+.....++++++           .......+++.++++++..+....+.....        @+. ............ ..      ..                          ",
"##%######################%##@+++++++++++++++++++.             ..+++...+.++++.......++....        @. ......................... ... .                   ",
"##%%#%#%%###########%%#%#%##++++++++++++++++.++.+              +++.+....+++...++..+......      @@@@....................... ...  .. .                  ",
"############@#####%%%%%#%%#%##@++++++++++++++++++           . .++++.+.+++..++++.+.++....+.    +@@@. .................................                 ",
"############%%%%%%%%%%%%#%%%%%%%##@++++++++++++++           ..+++++++++++.++++++.+++.....+     +#...+.................................                ",
"###@#%%%%%%%%%%%%%%%%%%%%%%%%%%%%%%%%##@+++++++++           ..++++.++++++++++++.++++.+.++.     +++@#@...................................    .         ",
"#%%%%%%%%%%&%%%%%%%%%%%%%%%%%%%%%%%#%%######@++++           ..+++++++++++++++++..+.+++++++     .@+@+.... .   .    ..       .    .   .    .. .   . ..  ",
"%%%%%%%%%%%%%%%%%%%%%%%%%%%%%%%%%%%%###%%##%%####            .... ............... ........     ..++.  ..    .   .   .     .                       .   ",
"%%%%%#%%&%%%%%%%%%%%###@@@@@@@@@#@@@@@#@@@@@@@@@@             .......................... ..     @ .....  ... ...... .....   ...   .   .     .     ..  ",
"++@@@@@####@@#@#######@@@@@@@@@@@+@@@@###@##@@##@             @+...........................   .    ........ ........... ... . . .    .         ..     ",
"@@@@@###########################@@@@@@@@@@@@#@@@#       .   . ..+@@@@@@@@@@@@@@@@@@@@@@@@@@    .@  @@@@@@+@@+@+++.+         ..... . ... . . . .  ..  .",
"#############################@@#@##@@#@@#@@@@@@@@      ...    @@@@@@@@@@@@@@@@@@@@@@@@@@@@@     .. @@@@@@+@@@@@@@@@@@@@@@@@+@@@@@@@@@@@@@@@@+++++.++..",
"##############################@##@@@@#@@##@@@#@@@       .     @@@@@@@@@@@@@@@@@@@@@@@@@@@@@    ..  @@@@@@@@@@@@@@@@@@@@@@@@@@@@@@@@@@@@@@@@+@@@@@@@@+@",
"#############@#########@########@#@#@###@@######              @@@@@@@@@@@@@@@#@@@@@@@@@@@@@      @..@@@@@@@@@@@@@@@@@@@@@@@@@@@@@@@@@@@@+@@@@@@@@@+@@@",
"#############################@##@@####@###@@@@#@              @@@@@@@@@@@#@@@@@@@@#@@@@@@@@@    &#..@@@@@@@@@@@@@@@@@@@@@@@@@@@@@@@@+@@@@@@@@@@@@@@@@@",
"##@###############@########@###@@##@@@####@@@@@#             .@#@@@@@@@@@@@@@@@@@@@@@@@#@@@@      +..@@@@@@@@@@#@@@@@@@@@@@@@@@@@@@@@@@@@@@@@@@@@@@@@@",
"################@##########@##@#@@@#@#@@@#@@@@#.            ..#@@@@@@@@@@@@@@@@@@@@@@@@@@@@@@      ..@@@@@@@@@@@@@@@@@@@@@@@@@@@@@@@@@@@@@@@@@@+@@@@@@",
"###########@##@######@##@##@#@@###@@@@@#@#@##@#             ..@@@@@@@@@@@@@@@@@@@@@@@@@@@@#@@      . .@#@@@@@@@@@@@#@@@@@@@@@##@@####@@@@@@@#@@@@@@@@@",
"#######@######@@@#@@@@@#@#@#@@#@@@#@@##@@@@#@##       @   . ..@@@@@@@@@@@@@@@@@@@@@@@@@@@@@@@      .  @@@@@@@@##@######@@@@@@@@#@@@@@@@@@@@@@@@@@@@@@@",
"#@####@@###@@@@@###@@@@#@@@@#@#@##@#@#@####@@@#       #     . @@@@@@@@@@@@@@@@@##@#######@#@@       + @@###@@@@@@#@@@@@@@@@@@@@@@#@@@@@@@@@@@@@@@@@@@@",
"@#@##@#####@#@@#@@@@@#@###@##@##@@###@@@@@@@@@#       #    .  @@@@@@@@#@@+#@@@@@#@##@##@@@###        . #@@@@@@@##@@@@@@@@@@@@@@@@@@@@@@@@@@@@@@@@@@@@@",
"@@#@###@##@#@##@##@@@@@@####@######@#@@##@@@@@@       #    .. @@@@@@@####@@####@@@@@@########      ... @#@@@@@@@@@@@@@@@#@@@@@@@@@@@@@@@@@@@@@@@@@@@@@",
"@@@@@@#@@##@@#@##@@@@@@@@#@@#@@#@######@@#@@@@.      .#      .@@@#@@@@########@@@@@###@@#@@@@       .  @%@@@@@@++@@@@@@@@@@@@@@@@@@@@@@@@@@@@@@@@@@@@@",
"@@@##@@@@@@@@@@@@@@@@##@@@@@#@###@##@#@@@@@@@@       ##      .@@@@@#@@@@@@@@@@@#@@@@@@@@@@@@@       ..  #++@@@@@@@@@@@@@@@@@@@@@@@@@@@@@@@@@@@@@@@@@@@",
"##@@@@####@@#@@@#@@@@@########@@#@@@@@@@@@@@@@       @#       @@@@@##@@@@@@@@@@@@@@@@@@@@@@@@        ++ %%+@@@@@+@@@@@@@@@@@@@@@@@@@@@@@+@@@@@@+@@@@@@",
"@@@@@@@@@@@@@@@#@####@#@@@####@@@@@@@@@@@@@@@@       @@       @@@@@@@@@@@@@@@@@+@@@@@@@@@+@@@         . %%@@@+@@@@@@@@@@+@@@@+@@+@@@@@@@@@@@@@@@@@@@@@",
"@@###@@###@@@@#@@@@@@@@@@@@@#@@@@@@@@@@@++@@@@       @@      +@@@@@@@@@@@@@@@@@@@@@@@@@@@@@@@         +..@@@@@@@@@@++@@@@@@@+@++@@@@@@+@@+@@@@@@@@@@@@",
"@@@@@#@@#@@@@#@@@@@@@@@@@@@@@@@@@@@@@@@@+@+@@@       @@       @@@@@@@@@@@@@@@@@@@@@@++++@@@@@         .  @@@@@@@@@@@+@@++@++@@@+@+++++@@@@+@@+@@@@@@@@",
"#@@@#@@@@@@@@@@@@@@@@@@@@@@@@@@@@@@@+@++@@+++.       +@       +@++@@@@@+++++++++++@++++@@@+++            @@+@@+@++++++++@+++++@+@@++++@@+++++@+@@@@@+@",
"@@@@@@@@@@@@@@@@@@@@@@@@@@@@@@@@@@@@+@@+++++@        +@        +@+++.++...++++++++++++++@@@@+.           +++@@++.++++@+++++++@+@@@+@+@@@+++@+@@@@@@@@@",
"@@@@@@@@@@@@@@@@@@@@@@@@@@@@@@@@@@@@@@@@@@@@@        ++        @++@+++.+++++++++++++@++@+++++            .+++++@@+++@@+++++++.++++@++++@@@+@@@@@@@@@@@",
"@@@@@@@@@@@@@@@@@@@@@@@@@@@@@@@@@@@@@+@@@@@@@        ..         ++++++++++++++++++++@+++++++              +++@+@@@+++++++++++++@++@@@+++@@+++++@@@+@@@",
"@...........................+++@++@+@@@@+++          ..         +++++++@+++@+++++++++++++.           $.   @@++@+@+@+++@@@@++++@+++@@@@@@+@++@@@+@@@@@@",
"@#@@###+............................... . ..                    .+.   ..      .  .                   + .  @+++@@@#+++@@+@@@+@@+@+@@+@@+@@@+++@+@+@@@@@",
"@@#@@@@@@@@@@@@@@@@@@@@@@#@@++.+...    ..                       .          .++++++++++++++.+++++  .   .++++@++@+@+@+@@@++++@@@@@@@@@+@+@@@+@@@@@@@@@@+",
"@@@@#@#@@@@@@@@@@@@@@@@@@@@@@@+@@@@++++@++@+@+++..               .     . .                              +++@@@@+@@@@@+@@@@@@@@@@@@@@+@+@@@@+++@+@@+@@@",
"@@@@@@@@@@@@#@@@@@@@@@@@@@@@@@@@@@@@@@@@@@@+++@@+++++++++++++++++@+++++++@@@+++++++++++@@++++@.    .+@++++++@@@@@@@+++@+@@@@@@@@#@@@@@@@+++@+@@@++@@@@",
"@@@@@@@@@@@@@@@@@@@@@@@@@@@@@@@@@@@@@@@@@@@+@@+@+++++++@@+@@@++@+++++++++@@@+++++++++++@@@@++@@+@+++@++@+@@@@@@+@@@@@@@+@@@@+@+@@@+@@@@@+@@++@@@@@@@@@",
"@@@@@@@@@@@@@@@@@@@@@@@@@@@@@@@@@@@@@@@@+@@@@@@+@@@@@@@@@+@@@@++@@@@@@@@@@@@@+@@@+@@@@+@@+@+@+@@++@@@@++@+@@@+@@@@@@+@@@@@@+@+@@++++@@@@+@+@@@@+++@@@@",
"@@@@@@@@@@@@@@@@@@@@@@@@@@@@@@@@@@@+@@@@@@@@@@@@@@@@@@@@@@@@@@@@+@@@+@@@@@@@@@@@@@@@@@@@@@@@+@@@@+@+++@+@@@+@@@@@@@+@@@@@+@+@@@@@@+++@@@@@@+@@@@@@@++@",
"@@@@@@@@@@@@@@@@@@@@@@@@@@@@@#@@@@@+@@@@@@@@@@@@@@@@@@@@@@@@@@+@@@@@@@@@@@@@@@@@@@@@@+@@@@@++++@++@@+@@@@@+@@@+@@++@@@@@@@+++@@@@@@@@++@+@++@@+@++@+@@",
"+@@@@@@@@@@@@@@@#@@@@@@@@@@@#@@@@@@@@@@@@@@@@@@@@@@@@@@@@@@@@@#@@@@@@@@+@@@@@++@@@@@@@@@@@@+@@@@@@@+@++@+@+@@+@+@@@@@@@+@@@@++++@+@@+@+@@@@++@@+@@@@@@",
"@@@@@@@@@@@@@@@@#@@@@@@@@@@@#@@@@@@@@@#@@@@@@@@@@+@@@@@@@@@+@@@@@@@@@@@@@@++@@+@@+@@@@@@@@@@@+@@+@@@+@+@@@@@@+@+@+@@@@+@@+@++@@+@+++@++@@@++@@@@+@@@@+",
"++@@+@@@@@@@@@@@+@@@@@@@@@@@@#@@@@@@+@@@@@@@@@@@@@@@@@@@+@@@@@@@@@@++@@@#@@+@@@@@@@@@@@@@@@@@+@@@+@@@@@@+@+@@@@+@+@++@@@@++@++@+@@@++@@@@+++@@@++@@@@@",
"#@@@@@@@@@@@@@@@@#+@@@#@@@@@@@@++@@@++@@@@@@@+@@@@@@@@@@@@@@@@@@@@@@++@@@@@@@@@@@@@@@@@@#@+@+@@@++@@@@@@@@@+@@@@@@@@@@@@@+#++++#+++@+@++@+++++++++@@@@",
"+@#@+@@@@@@####@@@@@@@@@++@@@@@@@@#@@@@@@@@@@@@+#@@@@@@@@@@++@@@@@@@@@@@@@@@@@@@@#@@@@@@++@@@@@@@@@@@@+@@@@++@+@@@@@@@@@@@++++@@+++@+@++#+++@@++@@+@@@",
"@@@@@@@@@@@@@@@##@@@@@@#@@@@@@@@@@@@@@@@@@@@@@@+@@@#@#@@@@@++@@@@@@++@@@#@@@@@@@@@@@@@@@@@@@@@@#@@+@+.@@+@@@@+@@@@@@@++@++@@+@@++@++@+@+++@++++++@@@+@",
"@@@@@@#@##@#@@@@+@@+@@@@@#@@@@@@@@@@@@@@@@@@@+@@@@@@@@@@@@@@+...++@++++...+.++++++.++++@++@+@@@@@###.@@@@@@@@@@@@@+.@@@@@@@@+@@@@++@+@@@@++@+@@@@@@@@+"};
