/* XPM */
static char * wish_you_were_here_small_16clr_150x100_xpm[] = {
"150 100 16 1",
" 	c #0B0704",
".	c #211915",
"+	c #3A2C24",
"@	c #823219",
"#	c #584839",
"$	c #AE4924",
"%	c #6D5F4B",
"&	c #7B6E57",
"*	c #918268",
"=	c #AE8A5B",
"-	c #B8A987",
";	c #A2B5BD",
">	c #ABC4D0",
",	c #D2C094",
"'	c #D0C5A5",
")	c #EEE8D1",
")'--)))--)------))))))))))))))))#)))*)'*)))))))'')>>>>>>>>>>>>>>>>>>>>>>>>>>>>>>>>>>>>>>>>>>>>>>>;%.%%##-;''*+#++##+#####+##########**====**#+#++++++.",
"'''-')),-'-----*))))))))))))))))%))))%)#))))))))))>>>>>>>>>>>>>>>>>>>>>>>>>>>>>>>>>>>>>>>>>>>>>>>;#.%###*''-'++++++#####+##########+*======*+#++++#++.",
"')'''))'--------))))))))))))))))%))))).-))))))')'-;>>>>>>>>>>>>>>>>>>>>>>>>>>>>>>>>>>>>>>>>>>>;;;;%+%##%-''--#+++###++#############+========#+#++++++.",
"-'---))-----*--*))))))))))))))))%)))))*))))));)))*;>>>>>>>>>>>>>>>>>>>>>>>>>>>>>>>>>>>>>>>;>;;-*;#%#####*'#--++++#+#++########+##+#+*=======##++##+++.",
"-'---))',,------))))))))))))))))&))))))))))))')))*&;>>;;>>>>>>>>>>>>>>>>>>>>>>>>>>;>>>>>>;''-*=*;+######&&&&#+#++#+++#+######..###++**======##++#++++.",
"-)---))''-,----*))))))))))))))))*)))')'))))))')))&-*&&&)>>>>>>>>>>>>>>>>>>>>>>>>>>>>>>>;,=,,$$**&#######*&***+++##+#++######.  ####+***=====#++++++##.",
"-)---))''''-----))))))))))))))))-))))))))))))')))''-''')>>>>>>>>>>>>>>>>>>>>>>>>>>>>>>;,$=-;*==*;#######*****#+++++#+#+#+#+    ###+#****====&+++++#++.",
"-)---))''''----*))))))))))))))))-)))*))''''''')))))''''.  .;>>>>>>>>>>>>>>>>>>>>>>>>;-'$$,-;&;-*;#####+#*----+++++++++####+    +++#+**======&#+++#+++ ",
"-,---')'','-----))))))))))))))))')))#))%+++++))))))-'*      .;>>>>>>>>>>>>>>>>>>>>;;'=$$===;;;;;;%%####%----*++#+++#+++++++  ..##++#**=*====*+#+++#+  ",
"------)'',------))))))))))))))))-'))%--*&----))))))%'         ;>>>>>>>>>>>;>>>>>>>>>-@@@,=';;;;;;%######--*&&++++++++++++++   .##+++**==&==&*++#+     ",
"-*----)'''-----*))))))))))))))))'*))#)-%%*&*=))))))'         .&>>>>>>>>>>>>>>>>>>>;###..@@';;;;;;#######*-*%++++.++++++++#+.  .##+#+***=====*+.       ",
"-*',--)'''----**))))))))))))))))*-))#)'%&===-)))))))          ;>>>>>>>>>>>>>>>>>;; +  .%*@=;;;;;;#######*--%#++++++++++++++....+#+#+***=====&         ",
"--'-,-)''','----))))))))))))))))'+))#'-++*==-))))));      +..&>>>>>>>>>>>>>>>>>>>#    +. #$=;;;;&#######*-**&++++++++++++++. ..+#+##*=%..+#+          ",
"--)-,-))',-)----)))'))))))))))))) .)#))*---==))))))*      +#.%>>>>>>>>>>>>>>>>>>;    . .+@@@;;;;&#######*-***+++++++++++++#....#+###*=*#.%            ",
"*+&',-)',,-)----)))')))))))))))))  )#-&*-====))))))%      #&.*;>>>>>>>>>>>>>>>>;;   +.   .@#;;;;########*--**++++++++++#+#+.. +#####*=*%              ",
"--,',,''-,,'#*--)))')))#))))))))) %)+&--====-))))))       .+*%;>>>>>>>>>>>;;>>>;;        .+.#;;;%#######%-***++++++++++++++. .++#++#*#                ",
"---,,--',,,-+---)))')))))))))))))+*)#-)-=====))))))%     .+@=*>>>>>>>>>>>>;;>>>;>;.      .  #;;;;#######%-*&*++.++++++#+++#. .++#+++*.                ",
"--=',,-',,,-----)))')))))))))))))+*)+*)-====-)))))))    ...#$->>>>>>>;>>>>>;>>>>;>;     ++.#+&;;;##+####&*==&+++++++++++###.. +#+.+#                  ",
"---'',-',-,-----)'&+&))))))))))))#-'+*)*-%&##&*&#-));  &;  .%*>>>>;>>>>>>>>;>;>;>;;     ++')&##;;#######%*&%%++++++++++++##....+++##.      &&         ",
"*--',,,),,,-'***-))+)))))))))))))+-'+')*=***&))*))))  .##* #;;>>>>>;;>>>>>>>>>>;;;;.   .+&)>+++#;#@@##=##=%&=++++++++++++#+....+++++#.  **&*&         ",
"---,,--),,,-)--*-))')))))))))))))+-)#'-%-===-)&)')%..#%%##%;>;>>>>>>;;>>>>>;>>>;;;;;+   .#> ..+..+$$$#@@@@$=*++++++++++++++.. ++#+#+**+++*+++         ",
"-=*'---),---)-*+*))#)))))))))))))+-'+,'#-====*))) .%.+&%%%#;>>>>>>>>;>>>;>>;;;;;;;;>;   ;)  ....  #$$@$$$$$$*#++++++++++++#.. +##+#+&***+*+%+         ",
"---'*-=,,---)+#&'))))))))))))))))+-'%')#=====))). .##++#%%#%;;>>>>>>;>;>;;;;;;;;;;;;;;; ;;   .   +.@$$$$$$===#++++++++++#++...+####.%-#+#*+*+         ",
"-,--------,--**&'))))))')))))))))+,'+''#=====)).   ....+++##++;;>;>>;;;;>>>>>;>;;;;;;;         .&-+@$$$$$====%+++++++++++++. ..++###%*+***+*+         ",
"--,-',-------+.#'))))))))))))))))+-'%-)#=====)'.    . ..++++.&&>>;;;;;;>;>;;;;;;;;;;;+  ..      #&+.@$=@@====#++++++++++++#.. .###+.#*+++*#+*   .     ",
"'---'-,----,-#.*'')))))))))))))))#-)%*'#*====)..  .   .   .###.;;;;>;;;;;>;;;;;;;;;;;            -#$$$$@$$===++++++++++++##.. +######==-***=*.  .   . ",
"----)---',,,-&+-'))))))))))))))))#')&-'#*%===) .          +##+%;%);;;;;;;;;;;;;*****& .+   .    .*+=$#++#=&&=+++++++++++++#.. .######===**&=*   .    .",
"----)---)----'#-'))))))))))))))))#-'#%'+-#===)            +..###--------'-'-''-',---*  .         .##%++##=*+=&##+#+++++++++.. .++#++#=******=     .+. ",
"',--'---'-,,,)=-,)))))))))))))))-#-)*%&##%--=)              & +#','',,''-,,'',''''---            .#%@+###====%##+#+++++++++.. .#+++++==**&**=..+  .+.+",
"-,--'---'-,,,)--,))))))))))))))))+-)%+)#-*===)                .+-,,',''--',--''''----            ..=@..@#====&+++++++++++++.. .##++##===***=*.....++.+",
"-,--',----,,,-*-'))))))))')))))))#'-*.'#*--=&&             #+###+,,','','',,-,--'''--            .=@@@$$@@@@=*++.++++++++++.  .++++#+===*=*=*++...++++",
"---------,,,,---')))'))')#)))))))+-**+*+-===*               .##++',,,',-,,,--,'''-''-*          .+#@$$$$#@..#*+++++++++++++.. .+++##+*======*.+.+.++++",
"-,---'---',,,---')))-)'))))))))))+-)*+-&--&%#                 .&##',',,,--,--,-,,'--,-          .%@$$@@@.   .. .++++++.++++.   ++#+++===*=*&*++.+.++++",
"'----'--,',,,-'-,)))')%))))))))))+')*.)#--%*%                  ..++#%,,,-,--*-,-,-,,,-         . %@$$+@@..+.. +.    .+.++++.   ++++.#==*====*+++++++++",
"-----'---',,,-'-,)))))&))))))))))+''*#'%=*&#%                  ..++---,,-,--*---',,''         ..% @$++@..... ...    ....+++.   ++++.#===*&==*+++++++++",
"'----)---',,,-'--)))))*))))))))))+''*#,*---%*                   #+##.%,,,,--*,,-,''-.        ##++@$@++... ....+.    .. .+++.   .+++.#=======*+++++++++",
")----'---',,,,)'))))))&))))))))))+''-%)*=-=--                    +..++,-#-,-&---,-'         #. .$$=@++....    ..       .+++.. ..#+++#========+++++++++",
")----'--,,,,-,''))))))#)))''--'))+'''%'-%%---                       + .-&*-&#,---#         .#%.@@.  +.++.   . ...  .   .+++.  ..+++.#===*===*++++++...",
")----,----%,,---')))))&)')%%&&-*)#-'%,)-%*%--                      #+.. ...+#---        .  +  .    +..+.     .+....+   .+++    .++#.+=======*..... ...",
"--------,-*',=-'))))')%)-)%%%#*-&#-'%,''#*---                   *    ..+ .%&+++       #+         + +..+.      ......    +++   . ++..+====&&**.. .  .  ",
"&****&-----#---,'))'))&'#)##%%--&+-'%-'-=-=--                   +-%        ....     +#++        . ++  .+ ..   ......            + ..+%%%###.#....     ",
"#+####&####.###-')')))*'%)&&&&*#&#-'%,)-===-=                    ---.      ....      ++           . ..++      ......          .     .++++++ + .   .   ",
"#####+&###*+###*#*----&*%'&*#%-'%###%#*&#=-**                    ----%            #*      .         ..+...    .......               .++++++.+  .    . ",
"#*####*###*+###*#=====&&#-&#%&*&#&#+#%=%+####.                   ----**%  -.    #%*#+              +. .+.#.....+.....         .     .++++#+++  .      ",
"+*####=###*+###*#======**-%%&--*%&###%-%.#####        .  .       --+-===---=--**-**&.               . ++   .  .... ..               .#+++++++        .",
"+*#++#*##+#+#####====-,')''%-'-@=-*-&**%%##+#          .+ .      *&**%%%&#%&%%%&&%%#++                                               #+++++++   .     ",
"#&+###%+++#&###+#====,,''')#''====-----------          .  .. ..  #############+++++++++                            . .....    .      ##++++++        .",
"+=####+####&####+===,-,'-''+'%===------------           . .+ .++ .##########++++++++.++            .  ........ ... ..   . .      .+. #+#+++++      .  ",
"#&#########=####+%=,,--*))'#-=====-*=-*-----*            . .  +.+.-*&%##+#+#+#+####++#+     .         .#++.   .++%##&&&%#%%&&*******&+&&&***+         ",
"#######*###=####&==,,,-'''''==*-==-**-------#            .... ++. ######+##+##++###++++          ..   .++.+++.+.. .. ....  ....       . .   ..        ",
"----------==========----==-===***===*&---&##              ... .+. #+##++##+#+++++##++++#         ..    ++.++++....++. . ....       .                + ",
"----------========****&#+##++#++#####+#########.          .+....+.+###+##+++++++#+#+#+++.           . .+++..+++...+++++...                            ",
"******-===-====&=&#+##++#+#+#####+++#+++++######          .....+++###+######++#++++#+++++      ..@@+ +.++.++++++...+..........         .    .         ",
"-----------------***-***---*%###################+             ++###+++#+####+++++++##++++       .$@ ++++++++++++++++....+..+.......                   ",
"----*----*-----------------*%###############+##+#             .###+#++++###+++##++#++++++      %@$$.+++++++++++++.+++++++...+...........     ...      ",
"*--*-------*&=---------------*%##################           ..+####+#+###++####+#+##++++#+    #%@$+.++++++++++++++++.++++.....+.+...........         .",
"*********-----,-',,''',--''','---*&##%###########           ++###########+######+###+++++#     %=+@@@++++++++++++++++++..++++.++..+.+... .........    ",
"***&*-,,--,','''''',''''--,-----------*%#########           ++####+############+####+#+##+     %@@$$@++++++++++++++++++++++++++++++++.......... ......",
"*--'''''''''''''''','''''-,,--'------------*%%###           ..#################++#+#######     +%@$#+++................ ..............................",
"'''''''''',''-'',,'---,---,,-----'-------------**          .........+..+.+.++...+..++++..+.    ++@#............... ..... ..... .. .. .......  .   .   ",
"'',''--'''-''''--''---*&*&&&&&&&*&***&*&&&*&&%&&%          ...+.+..++.++++++++++++++++++.++    .%.+............+.......................... ... . .....",
"##%%&&&*****&*********&&&&&%%%%&&%%%*&******&&**&          ...%#+++++++.++..+.+...++++++++.   . ...++..+....+..+++..++........+.......................",
"%%&&&***-*****-*******************&&*&&%&**&*&&&*       .  ...++#%%&%%%%%%&&&&&%%%&&%&&&%&%   .+%  %%%&%&%&&#%###+#...........++......................",
"***--****-*--**********-******&*&***&*&**&&*&&&&&      +......&&&&&&%%%&&&&&&%%%&&&&%%%&&&&     ++ %&%&%%%%%%&%&&&&&%%%%%%%%&%&%&&&%%%&%%&%%#####+##++",
"*********-************************&&&**&**&&***&%       . ....&&&&&&%&&&%&&&&&&&&&&&&&&&&&&    ++..&%&%%%%%&&&&*&%%&&%%&&%&&&%&%%&&&%&%%%%&#%%%&%%%%%%",
"****-*******-&**-**-**************&*&****&******         .. ..&&&&&&&&&&*&&&&*&&&&&&%&&&%&&.     %+.%%&&&%&%&&&%&&&%%&&%%%&&&%&*&%&%%&%&%%%%%%%%%%#&%&",
"***********---*-**-**********&***%****&****&&**&          ....%&&*&&&&&*&*&&&&&&&&***&&**&**    '*.+%&&&&&&%&&&&&&&&&&&&%&%&&%&%&&&&%%%&%%&&%%%%%&%%%%",
"**&***-***-***-************&*******&*&****&&&&&*          ...+&*&&&*&&&&%&&*&&*&&*&&&%&**&&%      #..&&&&&&&&&&*&&&&&&&&*&%%&%&&&&%%&%%%%&&&&%&%&&&&%%",
"***-***--******************&****&&&*&**&**&&&**.          ...+*&&&&&**&&&&&&&&&&*&&&&&&&&&&&*      +.&&&%&%&&&&&&&%&%&&%&&&&&&&&%&&&&&%&&&&%%%%%%%%%&&",
"**************&******&*******&&***&&&&&***&**&*           ...+&&&&%&&&&&&&&&&*&&&&&&&&&*&&**&      ..@=*&&%&&&&&%&&*&%&&%&&&&***&*****&&&&&&**&&&&&&&&",
"****************&**&*&****&*&&*&&**&***&*&&*&**       %   . .+*&&&&&*&%&&&&%&&&&%&&&&&**&&&*&      +..=&&&&&&&**&******&&&&&*&***&*&*&&&&&&&&*&&&&&&&&",
"******&********&***&*&&*&*&&***&**%*&*&*****&&*       *    ...&&&&%&&&&&&&&%&&***********&**&       #.&&****&&&&**&&&&&&%&&*&&&%*****&&&&&&&&&&%*%%%%&",
"&****&*****&**&*&**&******&**&***&***&&&&*&&***       *   ..  &&&&&&%&*&&%*&&&*&*&*****&&&***       .+ **&&*&&****&&%&*&&&&%%&&&&%&&*&&&&&&%&&&&&%&%&%",
"&&********&*&******&&&*&****%******&*&%****&*&&       *    ++.%&&&&******&&****&&&&&&**-*----      ++. *=&%&&%&&&&&&&&&&*&&&&&&&&&%&%%&&&&&%%&%%&%&&%&",
"&&&&&**&&**&**&***&&&&&*&*&&*&&*&*******&*&&&&.      +*      +&*&*&&&*********&&&&&****&*&&&&       + .%=@&%&%%##%%&&&%&&&&&&&&&%&&&&&&&&%%%&&%%&&%&&&",
"&&***&&&*&&&&&&&&&&&****&&*%*&*********&&*&%&&       **      .&&&&&***&&&%&&&&&*%&&**&&&*&*&%       .+..$@#%%%&%%%%&&%&&&%%&&&%&&&&&&&&%%&&&%%%%%&%&&&",
"**&*&&*****&*%&&*&&&&&********&&*&&&%&&%&&%%&&       &*      .**&*&**&%&%&**&&&%&%%%&&&%&&&%&        ##.=$@&%&&%%%%&%&%%&%&%&%%&%&%&%%&%#%%&%&&#%%%%%&",
"&&%%&&&&&&*&*********&*&&&****&%&&&%&%&%&%%%%&       %&       &&&&&&&&&&&%%&%%%%%%&%%%&&%#%&&         +.$$=%%%%%&&&%&%%%%&&&&#%%#%&%%%%%%%%%%%%&%%&%&%",
"**********&&&***&&&&&*&&&&&&*&&%&%%%%%%%%%%%%%       &&      #%%&%&&&&%%%%&%&%%%&%&%%%%%%&%%%         #++=%&%%&%&&%%#%%&%%%%#&%#&%%%%%%%%%%%%%&%%%%%&%",
"&&*&*****&&&**&&&&&%%&%&%&%&%%%&%%%%&%%%#%%%%%       %&       &&%%%%&%&%&&&&%%%%%%%%#%%%%&&%&         .  &%%%%%&%%%%%%%%#%##%%%#%%##%%%%%%%%%%%%%%%%%&",
"**&%*&*&&&&%%%&%%&%%%%%%&&&&%%%%%%%&#&##%%###+       #%       #%##%%%%%%##%#######%#%##%%%%##          . %%%%%#%##%#####%#%###%%%%####%%#####%%%%%%%#%",
"&%&&&%%&&&&&&%%%&%%&&&&%%&&&%%%%%%&%#&%#####%.       #%        #%%##+##+++#############%%&%%%.          .###%%##+####%####%#%%%&%%#%%%%%##%%#%%%%%%%%%",
"%&&&&&&%&&&%%%&&&&&%%&&%&&%%%%%%%%&&&%%%%%%%%        ##        %##%###+#############%##%###%#            +#%###%%###%%##%#%#%+%#%#%%##%%&%%%%%%&%%%%&%",
"&&&&&%&&*&&&&&%%%%%&%&&&**&&%&%%%%%%%#%%%&%%%       .++         ####################%%#%####              ###%#&%%#%#%#%#######%%#%%%###%%#####%%%#%%%",
"&+.+++++++++++++++++++++++++###%##&%%&%&#%#..        +.         ###%##%%###%%############+           ;+   %%##%#%#%%%#%%%%%%##%#%#%%%%%%%%##%%%%%%%%%%",
"&*&&***%++++++++++++++++.++++..+.+..+........                   +#+....+.............                # + .%###%%%*##%%%#%%%#%%#%#%%#%%%%&%%##%%%#%%%%%",
"&&*&&%&&%%%%&&%%&%&&%&&&%*%%##+#+++.........                   ..   .. ....+#############%+#####  .   .%%#%%%#&#&#%%%%%##%#&%&%%%%&%%%%&&%#%%%%%%%&%&#",
"&&&&*&*&%&%&&&&&&&&%&*%%%%%%%%%%%&%####%#%%#%%##+.              .+..  .... ............ ..              ##%&&%&#%%%%%%%%%%&%&%%&&%%&%%#%%&%%##%%%%#%&%",
"&&&&&%&%&&&&*%&%&&&%%&&&&&%%&&&&&&%%%&%%%%%###%%#########%###%##%%#######%%%###########%%####%+   .+%%#####%%%%%%%%#%#%#%%%&%&%&*&&&%%%%##%%%%%%#%%%&%",
"&&%%&&*&&&&%&%%%%&&*%&&&%&%&&&&&&%%%%%%%%%%#%%#%###%###%%#%%%#%%###%#####%%&#%#########%%%%%%%%%%##%%%%%%&%%%%%#&%%%%&%%%%%%%%#%%%#&&%&&%&%##%%&%%%%%%",
"*%&&%&%&%&&&&&&&&&&&*%&%%%&%%%&%%%&&%%%%%%%%%%%%%%%%%%%%%%&%%%#%%&%%%%&%%%%%%%%%%#%%%%%%%%%%%#%%##%%%%##%#%%%#&&&%%%%%%%%%%#%%%%%###%%%%#&%%%%%#%#%%%%",
"&&&&&%%%&&&&&&%&&%&&*&%%&&*&&%%&%%%%%&%%%%%%%%&&%%%%%%%%%%%%&%&%#&%%%%%%&%%%&&%%%%%%%%%%%&%%#%%%%#%%##%%%%%#%%%%&&%%%%%&%#%#%%%%&%###&&%%%%#%%&%%%%##%",
"&&&&&&&%&&&%&&&&%*&%&&%%&%&&&*%%&%%#&%%&%&%&%%%%&%&%&%%%%%%%%&%%%&%%%%%&%%%&&&%%%%%%%#&%%%%%###%#%%%%%%%%%#%%%#%%##&%%&%%%###&%%%%&%%##&%%#%%%%%#%&%&%",
"%%%%%%&&*&&&&&&&*&&&&%&&&%&**%&&&&&&%&&%&&**&%&&&%&&&%&&&%&&%&*&&&%%%&%#%&%&%##%%%%%%%%%&%%%%%%%%%%#%#%%%%#&%#%#%%%%%%%#&%%%#%#%%%%%#%#%%%%%%%&#%%%%%%",
"%&&&&&&&%%&%%&&&***%&&%&*&&%*&&&&%&&&%*&&%&%&&&%%#%%&%%%%%%%%&%&&&&%%&%*&%##%%#%&#%%&&%&%%&%%%%%#%%&%&#%&%%%%%%%&%&&%%#*%#%%%&%#%###&%%%%%%#%&%%#&%%%%",
"%%%&%&%%%&%&%&&%#%&%%&%&&&&*%*&&%%*%%&&&&&&%%%&%%%&&%&&&#%%%%%&&%%&##%%&*%%%%&&&&&&&%&&&%%&%%%%%%#%%%%%&%%#%%%%%%%%%%%%&%%#%#%&#%%%##%%%%###%%%##&%%%%",
"**&&&&&&%&&%*&%&**%&&**&&%%&%%%##%%%#%%&%&&&%%%&&%%&%%&&&%%%%%%&&&&%%#&&&&&&%&&*&%&%%%&%*%#%#%&%##%%%&&%%%%%&&%&&%%%%%&&%%*%###*%%%%#%##%#######%#&%%%",
"%%*&#&*&%&&****&%&*&&&**#%&&%%%%&&*&%&%%%%%%&&&%*&&%&%%%%%%##%%&%%*%&&%&&&&&%%&%%*%%&%&%##&%%%&&&%%&&%#%%%%#%&%%&%%&%&&&%%####%%###%%%%%*###%%#%%%%%&%",
"%%&&&%%&%%%%&&&**&%&&&%**&&&%&&&&&&*&&%%*&&&%%%#%%&*&*&&%%%##&%%&%&%#%&%*&*&&&&%%&%%&&%%%%%%%%&*&%#%#+%%#&%*%%&%%&%%%##&%%%&%%%##%%#%#%###%###%##%%&#%",
"&%&%*&*&**&*%%&&#%%#%%%%%*&&%%&&&&&%&&&&&%%%%#%%&&&&%%%&&&%%#+++##%####+++#+######+####%%#%#%%&&&**-+&%&%&&%%%%&%%#+%&%&%%%%#&%%%##%#%%%%##%%%%%%%%&&%"};
