/* XPM */
static char * wish_you_were_here_small_75clr_150x100_xpm[] = {
"150 100 75 1",
" 	c #020501",
".	c #0A0403",
"+	c #290500",
"@	c #180C0B",
"#	c #1F0B07",
"$	c #130F0D",
"%	c #380D04",
"&	c #241515",
"*	c #1F1916",
"=	c #25190F",
"-	c #5A1707",
";	c #2B2625",
">	c #2F261F",
",	c #332614",
"'	c #39241B",
")	c #4F2916",
"!	c #442F17",
"~	c #3B332F",
"{	c #3F3428",
"]	c #473227",
"^	c #5E3A2C",
"/	c #533D31",
"(	c #823219",
"_	c #48413C",
":	c #52422A",
"<	c #4E4236",
"[	c #51432F",
"}	c #614326",
"|	c #56504D",
"1	c #5D5042",
"2	c #60513D",
"3	c #625138",
"4	c #B64517",
"5	c #A34C30",
"6	c #695C49",
"7	c #635F5B",
"8	c #6D5F44",
"9	c #7B5C3B",
"0	c #71634F",
"a	c #776B54",
"b	c #7F6B58",
"c	c #8A6951",
"d	c #746E66",
"e	c #8E6A44",
"f	c #7E6F4E",
"g	c #7E725B",
"h	c #CD682E",
"i	c #887C66",
"j	c #997964",
"k	c #8B7E61",
"l	c #967C5A",
"m	c #B77747",
"n	c #898780",
"o	c #A18458",
"p	c #9A8E73",
"q	c #A38D69",
"r	c #AC9F85",
"s	c #B29F7A",
"t	c #B7A070",
"u	c #DC995A",
"v	c #A5AEAB",
"w	c #BCB095",
"x	c #C0B18A",
"y	c #A1B7C2",
"z	c #ACC1C7",
"A	c #A6C2D0",
"B	c #CBBF9B",
"C	c #D2C094",
"D	c #CAC2AC",
"E	c #BCC5C1",
"F	c #DED4B7",
"G	c #EDE2C0",
"H	c #EDE7CB",
"I	c #E3E9E3",
"J	c #EEE9D4",
"JDwwHJJxsGswwwwsHJJJJJJJHJHHHHJJ[HJJnJDiFJJJJIIDDIAAAAAAAAAAAAAAAAAAAAAAAAAAAAAAAAAAAAAAAAAAAAAAyy6&661:rvDwn{_]]//]////_{1/////////lqqqllee/]/]]]]'>#",
"FFwwFJJBxBrsrrrqHJJJJJJJHJHHHJJJ2HJJJ1J<IIIIIIEJJEAAAAAAAAAAAAAAAAAAAAAAAAAAAAAAAAAAAAAAAAAAAAAAAy1$6113pDDvD{~]]]]/////{<11////^^/]qqqqloee'/]]]]/]~&",
"BGBBBJJBswwxswwsHJJJJJJJHJHHJJJJ6HJJJJ=wIIIIIIEJDrEAAAAAAAAAAAAAAAAAAAAAAAAAAAAAAAAAAAAAAAAAAAyyyn6>6113wDDvw<~/]///]]/////11///^//]qllqllll[]<]]]]]{&",
"rBxxxJJxxsrsqrwqHJJJJJJJHJJJHJJH3HJJJJiJIIIIIvJJJrEzzzAAAAAAAAAAAAAAAAAAAAAAAAAAAAAAAAAAAzyEvywqv|6</112pD<ww{_]]/]/<]//<<<<^/]/^]/]lloooooo//]]//]_{&",
"rFxxxJJBCBsrssrqHJJJHHJJJJJJHJJJgHJJJJHFIIEIIDJJIpdyAAzzAAAAAAAAAAAAAAAAAAAAAAAAAAyAAzAAAEDBrrqjv~111<<<gaga1{_]]<{]]/]//<///*@<1/]]lllqlooo3/]]/]]]{&",
"sGxxxHJFBxBxsrwqHJJJJJJJJJJJHJJJiHJJDHDJIIIIIDJJJiwndddIzzAAAAAAAAAAAAAAAAAAAAAAAAAAAzAzCuCtmmjnn_1<1<<1igkpp{_]//]/]]<</<<<$../<//]lllllool3]]]]]]/<&",
"xGxxxGJFBBGxxwwqHJJJJJJJJJJJHJJJrHJHHJJJJIIJJDJJJFFwBBDJzzzAAAAAAAAAAAAAAAAAAAAAAAAAzAEChuwvnmmrn11<1111kkpkp<_/]]]_'_]/]/{$  $</<]/llllllolc]]']]/]{&",
"xGxxxGJFBBGrxwwqHJJJJJJJJJJJHJJJrHJJkJJDDDBBDFJJJJFDFFD>  ;nzAAAAAAAAAAAAAAAAAAAAAAzvvGhuCrvnvrnv11<11{1pwxrr{~]{<]>~]///<>...@]]]/]llllloooc/]]]/]]~@",
"sCwxxFJFBCBrsrrsHJJJJJHJHJJJHHJJDJJJ2JJ0!!!!!GJJJJJrFn.$...$*vAAAAAAAAAAAAAAyAAAAzyzBo5huuozyvvvv1111<<6rwsqj{{/{{>_//]{!{~$.@@</]]/llllooqlj]/]]]_>@.",
"wxrxxxJFBCxwswrsHJJJJJHJJJJJHHJJwFJJ8rrjfssqsGJJJJJ0D ..$$..$ zAAAAAAAAAAAyyAAAAAyAEs(-5CmDyvvvvv11<1111xsllb{{]~>~~{{{{{]~$.@@</]/'qlqleeoej]]<_.....",
"wqwxxxJFBBxrqrrqHJJJJJJJJJJJHHJJDpHJ:Gr89l9lqHJJJJJw.... ....*dAAyAAAAAAAAAyyAAAAAz^^^#%95Dyyyyyv11<<<<1prjc'>~~>>~{{>{{{/{*.$&</]/]qqqlooelj]&.......",
"rqwxxsHFBBxpqsqqHJJJJJJJJJJJHHJJrrHJ:GF99qtqtHJJJJJD.. .   . $nAAAAAAAAAAAAAyAAAyy@'..>7p-lvvvyyn<1<<<<1prq3/>>>~~~{{{{{~]<**@@{<]/]qqllqqolb@. .   ..",
"sqGxCxGFBBBBswrqGJJJJJHJJJJJHJJHD,HJ1wr'!qqttHJJJJJv.  .. ;@&dyAAAAAAAAAAAAAAAAAy|$ ..~; ^4uvyvyn1111<<1psqlb]{~~~~~>{{{{{{*$@=]/]//po8==,!{....      ",
"prHxxxGFBCxGxsrsHJJDJJJJJJJJHJJHF@=J[FFirssqtHJJJJJn..  . '^=7zzAAAAAAyyAAAyAAAAn.. .*$*'((-EzEvn111<1/1ixqlj{{{{{~{>>{{{{<*$*&<]//<rol/#d$....       ",
"p!bBCxGFxxxGrwwrHJJFJJJJJJJJHJJHJ@@J:warrtottHJJJHJ7.. ...^c#jEAAAAAAAAAAAAAAAAyn   ;;  .%-)vzvy711111/1iqslq{{>>{{{>~~<]/{&@$>////[pqq6@.....        ",
"rsCBCxBFxCCF<pwsGJJFJJJ2JJJJHJJHF@3H]gwwtttttHJJJHJ$. ....#%jcvAAAAzzAAAAAyyyAAyy     .. &^+_yyy71/1///10qqll{~>~>~{>{{{]]{&$&>]<]][k[@$.....         ",
"wxtxCxxBCxCw'xrwGHJDJJJHHJJJHJJHD'lJ2wJstttotHJHJHH7.....#](mnAzAAAzzzAAAyyzAAyyzn;. . .@@$@_vyyy/11<//1bslel,~={{~{{{<{{]<&@&{{<{]]n$.. ..  .      ..",
"rxswBBxFBBCswsxsGHJDJJJHHJJJJJJJJ!qG!iJstttttHJJJJHJ. ..&##)mwzyAAAzzyAAAAyzAAAyzyy... .>]=1;dzyv1<]<<<1bqlef,~~~{{{{{{{//<@&.>/,={<... ...  .        ",
"wssBBBxFxxxswwxrJDd,gJJJHJJHJJJJJ!xF!pFqq9b33iii[rHJv  dE..#9nzzAAyzzzyAAAzzyyyyzyy... .]'EId||yv|[/1/^/0l999,>>~{{{{]{]{/<*&@={]'//;...  @bi.        ",
"pssFBCBGCBxxBkqrrHJ)HHJHHJJHHJJJJ!xF!DJltqllfHHiJHHI$.$__n.7vyzzzyzyyyyzAyzzzyyyzyy*...#'iIE~~~|v^(5^^e^]e9cl]>{>>{{]]]]{/{@@*=<]]]{<*.@ipbi0.      ..",
"rsqGCxxGxCxxGsspwHJDJJJJHJJHJJJFF!sG:Dw}sttttHgHFJ7**_7d__dzzzzzAyzAzyyyzzzzAyAyzyyy;..@@_E.;*;;=)545^-(555el,~~>>{{{]]]]]{&&$>]/]<{iq/,'k',{.. ......",
"rtlBxssFBxxxHrq,pHJ:JJJHHJJHHJJHF!sF,BB3sttttkJFI$$7&_dd77_EzyzyAzzAzyzzyzzyyyyyyyyyy ..EI.$;$**.@^44(44444ml:>~~>{{,]]]]]<@&$></]/{fqrn]i]b>.  ......",
"rtxBqxqBBxxxF!!bBFHHJJJHHJJJHJJHF'sF8BJ:ottooGHJ*$*||>_777|dvzzzyyzzzyyyyyyyzzzzyyyyzyv Ev...* $ '+(4444hhmmq:~~~>{,{{]]/]{&>>><///=2s!,}q!l{...... ..",
"wxxxxxsssxBxwrqbFGHJHJJwJJJJHJJHH!CF!DF!otottGJ*$..$*;;_~~_|~_zyyzzzzyyyzyzzzyzyyyzzyy.$$ . .  *nw!(44h4holoo8>>>>>{,{/']]{&$&=]{<<<8q!pqf'p>...$.. ..",
"wxxsBxtssssxr,'3BFHJHHJJHHHHJJJJJ!xF8rF:ttoooGD*$$..*$;*;~;;@ddyzyyyyyyyzzzzzzzzyzyyy_ .;*$    $_d'+-hu((mllo[{''>>>'{]{]]/&*.=<[/]#:q!!,j:!i@..&  .$.",
"BsxsFxxxxxxBx2=qBFHJJJJJHHHHJJJJJ:xH8pD3qltooG$*$$*.$.*. $*|__;Ezzzzzzzzyyyyzzzzzyyyv...$        r)54(5(hmooe'{{{''>{{{{]//&@.>1////!oqsllllq&..@.  @$",
"wxxsFxxxBBxBxg{xBGHJJJJJHHHHHHHHJ:BF8sF:q9ttoH@$.......$  ;||_7E7Dvvvvvvvvvvvvvnnnnnd.*;   *    ;n]j5^]]}ecce]>{')]]{{{{]]/&*.@<////}olllceol@@.*$. .@",
"wxxsGxxxGxxxxF:sFHHJJJJJJJJJHHHHH!xF38B!s}qtoH..... ..$ ..~*&_|<sxwrsxxxBwBwBwwwBwwwn. *        $;1}6!~/}ol!oc/^)^]'>>']]]{@*.*]]/]]:ollqlqeq@@..@>~>.",
"wxxsGxxxGxCCCGttCHHJJJJJJJJJHHHHw:xHk80:23stoG.......... ..$d$;1BCBBCBBBwBBBBxBBBBxxw .          @|9)'<<:qqoo8/^'/]'>>]]]]]&&@@<]]]]!qlllcclq&*;.@=>=>",
"wxxsGxxsFxCCCGqsGHJJHJJJHHJJHHHHH!xF6,F<rlqqqG.......... .... *{wCCBCBBxxBBxxBBBBxxxw $         $;=s-#+)3ltmob>~>{{{>'']{]]@@.#//]]/:llqlllol&=&=&'>=,",
"wxssBBsxxxCxCxqxFHJJHJJJHDHJHHHHH:Bpi=F:psttfd .....      .|~__|{CCBCBBBBBxBxBxxBBBxx$$         $=s9--44(95}ol>>>{{{>>>]{{<@$.@]]]]/!qqqfllok>,===>','",
"wxtswxsxsBCCxsrxBHJJDJJDJ:HHJJJJJ!wpp,r,stoqq$ ...          *_<>>BCCCBxxBBBxxBBBBxwBxn .        $'^-4(45^)+&[j>]>{{{>>>{,{]&@.@{,{</!lqoqoooq='=>=,''{",
"wxsssBsxsBxCxsrxBHHHwJDJJJJHHJJJJ!wFi'rftse9/. ...          . *d|1BxBCCxxxxxsCxBCwxxBw .      ..*9-hh5(-+.$.>*@&>>~~>>'>{,{&$.$>]/]>!elllleep>'&'=',''",
"BxsssFxxxBCCCxBsCHHJFJ2HHHJJHJJJJ!BFp#G}tq9p6.....          .  >*>{:8CBxxxxxqxxxBxxxxr         *@c-45%(5#@>&*.>* ...@>&>{{{=$..>']'=:lllooool'''''']]'",
"wxsssFxxsFCCCxFsxHJJHHbHGHJJHHJJJ!wFp}G3tql!6.. ..            .*>~{rsxCCtxxxqxxxBBxBw$.     ..;*d -5%%(#@$&@$$=>....&*@={,{@$.@>]]]=[elqqeqll''']''']'",
"DxxsxGsxxGCCxxGxxJJJJJiHGHHJHHHHJ!BFl}Cftss3p ....            ..|~||=9CxxCxxfxxxCBBw*.       ___'(h-%^+*$$&@@*>>....**@={{{@$.@=]]]=[qlqqlqql''''''']'",
"FssssGxsxGCxxxGBFJJJJJbHHJJHHHHJJ{BFw9Gqtsqss  .             ...$~;*~,Ct}sCxfxxxBxB$      . <;.+55m-+'==$$$$@$&>....$$$*{'>$* @=/{]'/ooosooel]'{,,]]]]",
"FxsssFsxxBBxxxBBHJJJJH3JGHDwwwDHJ,wDD9Gs88ssr. .             .... $$>$@sflrg:Bxxw[$....  $.;_7=c-+ .{&>>$$$$@$>>>@.@$$.*{{>&$ @=]''=/oooleloe]''']>==#",
"FssxsBxxxq3BBxswFJJJHHbHFH06d0rkF:xD3CGx3p9tr..$....          ... ._;**.===>[rwr ..   . ;$$~ .#@ ..;&&>;$$$$@@;>===>@.$@{{>.. @@>><={looeeool#@&##@@@@",
"wssstssxxspwxtsBFJJJFH3GrH6661prg:xD3xGB:qtts. .....            p .. **;$=6g{,{.     @}'  .$.    ~.~&$>;$$$.@@*>=&*&$. ${>>.. @@>>=${lleoeelj@@@@@@&@@",
"bqlllfssxsr:xssBBJJFJJbF2J<|10rra,xB3sBqottts .               ..{w6....@.  @@==$..  ~^)'.$.$    * >_$@=>$$$$$$**@>&=$$$.$@@.. @@~@$&>3833}:=/&@@@$$@@@",
"2)^^}^c^}^3=!}}sFHFGHJpF6Hddgar:f:xB8CGsqtttq .               .. xxw=.. ...&&@@. .   ''....      .*.*${>$$$$$$;*&=&=$....$... @.@..@&]]]]]]@]@@@@@@@@@",
"^}^^^^c^^^j'^^^l}qqsqsflcDai11rB8:}}9}ll}qsqq@..              ...xxxx6.....@@.....1p.@@...*       .$&&>>@@.@$$**&=&**....$... $$@..@@]]]]]'#]$@@@@@@@@",
"/e^^^^j^^!j%^^)j)oooooe9}sa16aic}c^)}9o9%^^^^;..             $...wxwsqq0.@r=$$.$<0p:>$$$           ;@$=>>_>*@$*>@*&$*  ...... @.@...@]]]]]]''@@@@@@@@@",
"]j/^^^j:^^j%^^^j}oooeoqqlw860rwl9c^^}9s9%^^^^_..  ..  ;$ $. ..$..wx,tqqtssttsrkpsqpg=$ .         .$.$${~@$@@$$$*&*@$*.  .... .@...$.@/]]'''']..$@$@@@@",
"]c/!]^c!/]}%^^^}}ooeetGFGFF6wFs9esqsfll99}})^..   ..   *;.;$.... pfpk883a36ad1dda61<~~$          $$.$$$....$........ .. .... .$$....@/]]]''''.$$@@@@@@",
"/c!^^!c!]]!c^^^!!ooeeCCFFFH:BFeeelssssxssssww .   .....$$$*;.;*.._<<<11<<<__<<{{~~~~~{~          ..$  .............$$****$$$.$$$$...@</']]'''..@.@@@@@",
"]l^^^^)}^^}c^^^})eooCtCGxFF,B9eeexxxssssssssp$..  ......$.&;.$>; ><1<<<<<<<<~{{>>>>=>,>.         .$*$$$$*$>==*$$**$**$$$*$$$$$$$@&>*@/]]'']']$$.@.@&@@",
"/c)^^^^}^^^e^^^}!9oCCtskGGF:xeeeetqqqsqssssqp      .....$@$*$$>>~=rpi61<{<{<{<{<<<<{{<{.    *  .$$.@$$$<{{=@$$*>_7||ddd7171dgiiiiiind=bddiin;$$@@@.@$$",
"^}}!!}}l!}}q}^^^cloCCCxGFBBBlqlqoqsqqsssssxw1.     .    .;&** ;>*.<<<<<<__|_<<{{_<<{_~~        .$;;$$.*{~*~>>>>>*$**$**$$$$*$*$$$.$$ $@.@.$@@@@..@...@",
"wsxsxxxsttttoqqqqtoqssssqqssqqqllqqqqfqxrg2[$.          .$;;;$>~>@_{__~~____~~~_____~_~_       .$**$$$$>>>>>>>*>>>>;*$$$$$$$$$$$$$$@$$$$$$$$.$..$$.$>.",
"xxxxxxxstttqoqootoqqqk8[!2[]![]!!3:::][<<</1<_|*..       $*~;$**>*_<_______>~~~~_~_~_~~~*      .$@.$;$*;>~>>>>>*>>~>>>>>;*$$$$$$$$$$$.$$$$$$.$.$..$$..",
"klqqqqsqqosqqqoeqf!]<<{{{{1,2<<</]]{<{,{{<<1<<<<$.       $*;;;;~{>__<_______~~__~~~_~~~_;  . .$**9(>$>>>>>>>>>>>>*>>*******>**$$$$..$.$$$.$$$..$$$$.@@",
"rrxsrrrrrsssssssspppsqqqsxsq8[221/<111<1<<<<<<<<>.          .$;~<__~____<<<<~~_~_~~__~~~~$   .$$&5%.~>~>>>>>>>~~>>>>;***>>*>>*****;@.....$......$...@@",
"wwxwpwwwwksrrsswssssxxssxxsk3[<11<111<<<<<<<{<<{<.     $ $ $$ *<<<~_~~_{<<<{{{<<{{<{_~~~~$ .  $dc45'~~>>>~>~>>>~>>>>>>>>>>**>>**>>***=**$$$$$$@*$$$$$$",
"psspwrrrssqqfqssssxxxxxsxxxxsk02<11<1111<<<<1<<<1.      $$$$;*~<<<<{<{<<<{{<<<<{<{<<~{{{<~ .  |b94%*~~>~>~~~>~>>>>>~>>>>>*>>=>>>>>>>*&*@@@&@$$.$$$$$$*",
"pkllllqlqsssxxBxBBBBBBBxwBBBxwwxrpa12111111[<1<<| .      $$ ;>11<1<<<<<<<{<<<<<<{<<<{{_~{_. .. 2s%--^{~>~~~~~~;~~>>>>>>>;;>>>>>>**>*>;**$@@@@@&$&@@$$$",
"pllfqxBBxxBBBBBBBBBBBBBBxxBxxxwxxxwwwrk0[11111111 .      $$$;><<<<{<<<11<1<<<{<{<<1<~_{1<{..  $1)(459{~~~~~~~~~~_>~~~~>~>~>>>>>>>>>>>>>;&*&*;**@****&&",
"pxxwBBBBBBBDBBBBBBBBBBBBBxxxxxwxxwwwxxsrswrk02211 .        $*>1<<<1<<<<111<<<<<{{<____<<<< .   ~c(5^>~~>************&&*$***>******@*>&&****&****>**>**",
"DBBBBBBBBBBwBwBBBBBxxxBxxxxBwwwwwBwwwwwwxwwwwwrpi .        **>>>====>>=>>>>>>>>>>*;>>>~>>>*   $])^/;***;**********$*****$$****$**$*$$*$&$*$*$$$$$$;$$$",
"DBBBBsxBFBwBBBBxxwBxsspgff8ffffalgkkk8paagkgg0aa0.      .$ **$>>>>>~;;>~>>~>{>~;~~>>>>>>;~~.   =b#>;;;;*@;>***>>*>>*>>>>>&&**;;***>******@@**$$*$***@*",
"[:38fgflkkpkgkkkkkkplkfaf8a3383aa383kgkpikkkgiiii.         **=7<,,,,>>,=,,==,=>>>=>>>>>>>>>.. ;@***>>*=>>>;;>>>>>>>>>>>**>>*>=>=;*&&*;&&***&***>>*****",
"06aagppprppkpprpprpkppppkpkpkkkkkkigkfg8akigig0gn.     $;$ *>=,{[60a000006ga0ii600aa0aaa00d...*>7 .666dda1dd1d<1<{<===========>>>*>*>>=**************>",
"pprrrpprprprrppppppppppppkkkikakgkkkaiakkgiiagggd.     _>;$**=agagaa60aaigaaa608aaaa808ggga.  $$~~$0g00606668a8agaaa0a066601a6a600a600a66a60111<<{<<>>",
"ikpppppppppppppppppppkkppppkkpkkpkgggkkgiigakiig7$..    *$$**=ggggaa0gai0aaggiagaggaaaaaaga..  ~~**g0a00000aaggia00aa00ga6aaa0a60aaa60603001666a806060",
"ppppripppppprappppprpkkkkkpkpkpkikakkkkkiiikkikp. .     $*$.*=igagaaggggiagggiaggggg00aa0ga$.$$$$7{>08agi0g0gaa8iaa00aaa00gaa0aia0a06a0a26060600062a0a",
"prprppppppprrrprpprppkkppkkpkgkki0pkkk8kkkka8kpi$.       $$**=aigiaaga8iiigaffaagaiiiggiigin.. $En=>6agggii0aag8ggaagaag0a0ga0a0aaaa206000ga60080a6060",
"ppgppprpkprprppkppkpkkkkpkkkkkkikkkgkgiikpggigan.. .      $**=aiggiigagi0agiggiggigag0giigf0.     |>=aagagaagggiaggggiagia60a6aga888a6600gaga0a08aga06",
"rpprppprppppppkkkpikkppkkkkgkpkiggiigiiiiiggiii*.......   ***,iigaaaiiaggggaggagigggggagaagfi     $~=cca0g0gagggaa6a0aa0gggagagg0ggf8a0gga8806620000ga",
"ppppkpiipppkpkkippkpkkkpkkpkkggikigiaagiiigiiii......     **>,aggg0aaaagaggagigggagaaagigaikg      >#-ml0a0agaggaaaig0ga0agggiiifkkkkkgagggikigiaaaa0g",
"iiiiiiiiiippipiifkkkkgkkkkfkagkggiigiiigiggigpi...... d   ;$*,iaagggia0ggag0igga8aggg8iigigii    ..>*+ebagaaggiigipppiiigaggkakkkfkgkfgga0agkkggiaaabb",
"pippipgippiiikkgpkigiagpgkggpkkgii8pgigppiiiiii ....  n   $*>=gaaaaggggaaga6gikkkkkkkkpkigpia   ...._*dgkkpkggagipafggag0gaiaga8iikkkggggggagaa8i0006a",
"iiiiiipipiiaiigkaiiikkkkpkgppgkpigippgiggigaikn ..  ..i.  ;*$$fagagg0akaa3iagakgkgkkkkikggppp.  . $$*>.pl9bk8aiiiiga0aiak8g88gga86ggiagaggg0gaggg0g0g0",
"giiiiiiiiigigiiiiiigggiiikkk0iipiiiaig8kiiigiad$      i.  .>{$8fgggiikpppakkkpkgaaagkkipprwrr.  .  ~~>$ioe0f88aggag0gag0kgg08faa8a0g60aagaa6ag6600gaag",
"ggagiiigaiigiigppigggggigkggi0iigipiipkkgigfia=.     {i.  . $>fkgigggkkkpkpppkffgkaikpigkkgfi.  .   ;.*bu9b88062266g0a0gaaga8f8f8ggggaaa0006gg000a00ga",
"abipiigiiig0gaggggggiiiiggk0iipipkkkiiiigi00ag$.     ip.    .=af0ggpikgaa08fagak0aakkagakkia6.  . . *{*#m(:860a00600a0g0g00gaa0aggaaagg06gaa00600a0aga",
"iigiaiiiiiigi6giigigggiiipiiipigkfgg88a0a066aa$      ii.    .*kigigiia0a0gkkaaa0a060fgf8gg0ag   .....1_+uh}abgg6166b0a00g0a0a80gaa6g0606160a0ag306006a",
"ag00aagggiigiiiiiiipiaiggapiiig0aag088a0a0000d     . 2g.    . aaaagggiaaa88g886280a000a0826aa.        ]+uhm0b200aa06a0061ggaa:0020a066606006886060a0g6",
"iiiiiiiiiiggiiiiggaagkgkiggaiaa00006808022000d . . . ai.    .|88a00gaa088888a663a00006660a006.       $1')m9g00g0g061266a66082022a6666620626688a06620a0",
"giiiipiiigagiiggaaa88a880a0g080b0066a806262687 ..... 00.    . ag0380a6a8ggaa80683060111600a6g.      ..=@$ab086606006666216112262611116260666666000006a",
"iii0iiiggga080a03a060202baaab00b060b3a336b22[~. .    20. ..   <6226688611<11[112112161203322[$  .   ..$*$06206161111<<1161111166661<120011111626000616",
"g2ggg80ggggbb606a60aaaa60ggf606666b62b62[2222$.     .26  ..   .1622[][<{{{/<11<<<121<1[26a331;      ..$$*<1<6611]<</16112111166a66[6666611661603060600",
"dagggga88aa888af8ag00aa0ga38808088bbbb6006660..      1<  ..  ..d[23[11{<<//<[/<</<[161[02[[2<.  $   ..$$${12[2[66[<166[121116{1161661226a616066a6006a0",
"d0aga0gaigggga06006abg0aiigg0a88806002066b066...   .*,>. ..  .$$[332[1[2[11121<1112101[2[<<<$.      ....$@2:261b6611111621[1111011666121862<2226002030",
"0,>>{{{~>{{{>>>>>>>{,{{{{,,,<11611b6600011<=;      .._;.....   $<<111116<120221<11[[1/<1{>...  .. . $v~..@0311026<6262386626/16<62666b6666226666626620",
"iiagipi6{,>>{{{>>>{~{{>{>>>{>>>>>>>*>>*&>****. .  .. .  ...   .$~|~&***>*===&&=====$=$$$@$.......$.  _$>$&6///666p12206266016620<061066606222626106206",
"ibigb0bb8020gg0aa0ag0ggg0i6611{/{{,==*&>=@*&$           ...    *; ..*$$****;111<<<<<11<111{<1121 $;$  *7116611b1b1620b6122[g8a80b6a01660a010660666a6g3",
"agggigig0a0gaaaggga8ak88008888380a8321161661611<~>@@  ........@@=>==@@****$**&==&&@&$$*$=*$@@@$ . $$ .@@[[2g06a230b6616666a3a660g60g66100a06<<610616a0",
"aga0g0a0gaaai0g2bbb60faaag00gafgbb666b6668821100<111111122[2[2[126111<<<1606111111<<[[[06[2216{@ $={6611112380000661116<6b6a0g0gkgaa00662[206b66<66206",
"ia60bgigbag8g0000ggi8gfg0g0g8afab0666662088266262221[226826662262216222[{620[2<<<<<12[[6660128266<[206161b060862bb6b6a6660661026062g00a060011060606000",
"i0bgbb0a0bggaaaaaggak8gb00g000a080bb60002006386268b6888833a0062260606000800033026[00262666616166112302[2616202aab06060006061610061120806[a660601116606",
"ababb60bbbbbaa0ab0bbib00agiag88880020g0006b008a8080288886083a6a62a602066a062ag00660606060g60260622621[66b6616060aa66620a62016626a6111ag0600160a2666116",
"ibagbbb0gbb0aiab0ib6ab08b0aaak88a03!b608688bbb60bb00a86006882a306a00000a60600g00826062a26002<1<232606b6666106020322a06a066112b0080ab61106011606016b6a0",
"100000baigabgaibiggag0ba888kk8gaggaabaa8gfkib0bbb0g0a8gag3aa0apagg668a220a0a61[066660600a00266066601626616<b22226600660[g666[11262601010660626a1606606",
"6babbbag06g66bbgiik8gabakaa8k8afa8ggb6iaa3f0bbb06260b6008002003a0aa08a0ia6220620g2200a0a66a06160[06g3g26b6663266a20a661i6<661b610122g66666116a601a0606",
"620a2g60600a0ba6<0g88g3ga8gi0paa00i82giggaa000b000gg600a200206aa60a[260gp6228aaaagg00aga600626606100666b201666026202100a661612g1666<10066<1266011g6088",
"iibbbbaa0gabia8gii2ggiigb26b0383[600120a0aaa020ga60a20aaa602600gaga022aaaagg8agig8g888a6i02026a01<068fa00062ba6ga62066aa02i1<11i116616<<0[[[1[1161a000",
"6bib2big0ggjriig0gigaaii22aa8008gaig0a866660bbb3paa2a060060{[08a0ai0aa0gg0ga06g00i86g6a033a666gag66ag0[0660[2g20g60a0gga022[1<6611[06661p[2266116622g0",
"00agg06a080bagappa0abb0jiifa0agaggaiia00iaga060260aiiiga6001200000a2:8g8kgkabaf00a80af88002206aig2:82,60202i02a60006622a620a260116112[61[10[[1611b6b26",
"aba0iaigkiaib60b266266608iab00aabbg0agaa06066266bagb6600aa602,,{/<0{<<<{{,<,[1<<1<{[<<161<6<ddiggirr]b0a0gg0660a002{600a66662a660210[66661106060660ab6"};
